<mxfile host="app.diagrams.net" modified="2024-01-05T18:44:48.352Z" agent="Mozilla/5.0 (Windows NT 10.0; Win64; x64; rv:121.0) Gecko/20100101 Firefox/121.0" version="22.1.16" etag="7-dNlX7mqi2ecFgiZJhb" type="github">
  <diagram name="Halaman-1" id="-pXZHyzhp4rnt8g4KM5c">
    <mxGraphModel>
      <root>
        <mxCell id="0" />
        <mxCell id="1" parent="0" />
      </root>
    </mxGraphModel>
  </diagram>
</mxfile>
